<?xml version="1.0" encoding="UTF-8" standalone="no"?>
<!-- Created with Inkscape (http://www.inkscape.org/) -->

<svg
   width="55mm"
   height="36mm"
   viewBox="0 0 55 36"
   version="1.1"
   id="svg5"
   inkscape:version="1.3.2 (091e20e, 2023-11-25, custom)"
   sodipodi:docname="FirmenLogoW.svg"
   inkscape:export-filename="C:\Users\gfilbert\Desktop\FirmenLogoW.png"
   inkscape:export-xdpi="96"
   inkscape:export-ydpi="96"
   xmlns:inkscape="http://www.inkscape.org/namespaces/inkscape"
   xmlns:sodipodi="http://sodipodi.sourceforge.net/DTD/sodipodi-0.dtd"
   xmlns="http://www.w3.org/2000/svg"
   xmlns:svg="http://www.w3.org/2000/svg">
  <sodipodi:namedview
     id="namedview7"
     pagecolor="#ffffff"
     bordercolor="#666666"
     borderopacity="1.0"
     inkscape:pageshadow="2"
     inkscape:pageopacity="0.0"
     inkscape:pagecheckerboard="0"
     inkscape:document-units="mm"
     showgrid="false"
     showborder="false"
     inkscape:showpageshadow="false"
     inkscape:zoom="2.9825758"
     inkscape:cx="107.79274"
     inkscape:cy="120.19812"
     inkscape:window-width="1920"
     inkscape:window-height="1017"
     inkscape:window-x="-8"
     inkscape:window-y="-8"
     inkscape:window-maximized="1"
     inkscape:current-layer="g830"
     inkscape:deskcolor="#505050" />
  <defs
     id="defs2">
    <clipPath
       clipPathUnits="userSpaceOnUse"
       id="clipPath848">
      <path
         d="M 0,0 H 141.732 V 85.039 H 0 Z"
         id="path846" />
    </clipPath>
    <clipPath
       clipPathUnits="userSpaceOnUse"
       id="clipPath866">
      <path
         d="M 0,0 H 141.732 V 85.039 H 0 Z"
         id="path864" />
    </clipPath>
    <clipPath
       clipPathUnits="userSpaceOnUse"
       id="clipPath882">
      <path
         d="M 0,0 H 141.732 V 85.039 H 0 Z"
         id="path880" />
    </clipPath>
  </defs>
  <g
     inkscape:label="Ebene 1"
     inkscape:groupmode="layer"
     id="layer1">
    <rect
       style="fill:#ffffff;fill-opacity:0.818985;fill-rule:evenodd;stroke-width:0.395495;stroke-linejoin:round"
       id="rect972"
       width="55"
       height="36"
       x="0"
       y="0" />
    <g
       id="g830"
       inkscape:label="IROPA_Elektrotechnik"
       transform="matrix(0.35277777,0,0,-0.35277777,2.6251103,32.887504)">
      <path
         d="M 5.622,25.937 H 26.787 V 76.536 H 5.622 Z"
         style="fill:#231f20;fill-opacity:1;fill-rule:nonzero;stroke:none"
         id="path832" />
      <path
         d="m 114.236,25.937 h 21.165 v 50.599 h -21.165 z"
         style="fill:#231f20;fill-opacity:1;fill-rule:nonzero;stroke:none"
         id="path834" />
      <path
         d="M 32.551,25.937 H 53.716 V 76.536 H 32.551 Z"
         style="fill:#231f20;fill-opacity:1;fill-rule:nonzero;stroke:none"
         id="path836" />
      <path
         d="M 60.071,25.937 H 81.237 V 76.536 H 60.071 Z"
         style="fill:#231f20;fill-opacity:1;fill-rule:nonzero;stroke:none"
         id="path838" />
      <path
         d="m 87.154,25.937 h 21.165 V 76.536 H 87.154 Z"
         style="fill:#231f20;fill-opacity:1;fill-rule:nonzero;stroke:none"
         id="path840" />
      <g
         id="g842">
        <g
           id="g844"
           clip-path="url(#clipPath848)">
          <g
             id="g850"
             transform="translate(6.0952,8.0596)">
            <path
               d="M 0,0 H 6.232 V 1.518 H 1.804 V 3.531 H 5.783 V 4.933 H 1.804 v 1.76 H 6.14 V 8.21 H 0 Z m 9.287,0 h 5.806 V 1.518 H 11.091 V 8.21 H 9.287 Z m 8.654,0 h 6.232 v 1.518 h -4.428 v 2.013 h 3.979 v 1.402 h -3.979 v 1.76 h 4.336 V 8.21 h -6.14 z m 9.287,0 h 1.804 V 2.646 L 30.067,3.691 32.539,0 h 2.266 L 31.286,4.968 34.494,8.21 H 32.24 L 29.032,4.807 V 8.21 h -1.804 z m 11.955,0 h 1.804 v 6.693 h 2.461 V 8.21 H 36.722 V 6.693 h 2.461 z m 7.044,0 h 1.804 v 3.208 h 1.806 c 0.909,0 1.243,-0.379 1.369,-1.24 C 51.298,1.312 51.275,0.519 51.494,0 h 1.804 c -0.322,0.46 -0.311,1.427 -0.345,1.943 -0.058,0.828 -0.31,1.692 -1.195,1.92 v 0.024 c 0.908,0.367 1.298,1.092 1.298,2.058 0,1.242 -0.93,2.265 -2.402,2.265 h -4.427 z m 1.804,6.809 h 1.979 c 0.805,0 1.242,-0.346 1.242,-1.14 0,-0.829 -0.437,-1.174 -1.242,-1.174 H 48.031 Z M 56.008,4.07 c 0,-2.369 1.494,-4.264 4.036,-4.264 2.542,0 4.037,1.895 4.037,4.264 0,2.44 -1.495,4.335 -4.037,4.335 -2.542,0 -4.036,-1.895 -4.036,-4.335 m 1.804,0 c 0,1.439 0.61,2.82 2.232,2.82 1.622,0 2.232,-1.381 2.232,-2.82 0,-1.369 -0.61,-2.749 -2.232,-2.749 -1.622,0 -2.232,1.38 -2.232,2.749 M 68.963,0 h 1.804 v 6.693 h 2.461 V 8.21 H 66.502 V 6.693 h 2.461 z m 7.045,0 h 6.231 v 1.518 h -4.427 v 2.013 h 3.98 v 1.402 h -3.98 v 1.76 h 4.335 V 8.21 h -6.139 z m 16.507,5.451 c -0.218,1.898 -1.736,2.954 -3.542,2.954 -2.541,0 -4.035,-1.895 -4.035,-4.335 0,-2.369 1.494,-4.264 4.035,-4.264 2.013,0 3.427,1.308 3.611,3.356 H 90.836 C 90.698,2.08 90.077,1.321 88.973,1.321 c -1.621,0 -2.231,1.38 -2.231,2.749 0,1.439 0.61,2.82 2.231,2.82 0.897,0 1.679,-0.622 1.794,-1.439 z M 95.651,0 h 1.805 v 3.542 h 3.324 V 0 h 1.804 V 8.21 H 100.78 V 5.06 h -3.324 v 3.15 h -1.805 z m 10.356,0 h 1.689 v 5.496 h 0.023 L 111.136,0 h 1.804 v 8.21 h -1.689 V 2.702 h -0.023 L 107.8,8.21 h -1.793 z m 10.357,0 h 1.805 v 8.21 h -1.805 z m 5.227,0 h 1.804 V 2.646 L 124.43,3.691 126.902,0 h 2.266 l -3.519,4.968 3.208,3.242 h -2.254 L 123.395,4.807 V 8.21 h -1.804 z"
               style="fill:#231f20;fill-opacity:1;fill-rule:nonzero;stroke:none"
               id="path852" />
          </g>
          <g
             id="g854"
             transform="translate(37.771,38.7197)">
            <path
               d="m 0,2.6993 h 3.044 v 7.673 h 3.044 c 1.531,0 2.094,-0.908 2.307,-2.971 0.155,-1.567 0.116,-3.466 0.484,-4.702 h 3.044 c -0.543,1.1 -0.523,3.41 -0.581,4.647 -0.097,1.981 -0.524,4.043 -2.017,4.593 v 0.055 c 1.532,0.88 2.191,2.613 2.191,4.922 0,2.97 -1.57,5.418 -4.052,5.418 H 0 Z m 3.044,16.28 h 3.334 c 1.358,0 2.094,-0.825 2.094,-2.723 0,-1.98 -0.736,-2.805 -2.094,-2.805 H 3.044 Z"
               style="fill:#ffffff;fill-opacity:1;fill-rule:nonzero;stroke:none"
               id="path856" />
          </g>
        </g>
      </g>
      <path
         d="m 14.668,41.419 h 3.044 v 19.635 h -3.044 z"
         style="fill:#ffffff;fill-opacity:1;fill-rule:nonzero;stroke:none"
         id="path858" />
      <g
         id="g860"
         transform="translate(0,2.6993)">
        <g
           id="g862"
           clip-path="url(#clipPath866)">
          <g
             id="g868"
             transform="translate(92.7627,38.7197)">
            <path
               d="m 0,0 h 3.044 v 7.04 h 3.199 c 3.451,0 4.788,3.107 4.788,6.297 0,3.19 -1.337,6.298 -4.788,6.298 H 0 Z m 3.044,16.28 h 2.365 c 1.415,0 2.676,-0.44 2.676,-2.943 0,-2.502 -1.261,-2.942 -2.676,-2.942 H 3.044 Z"
               style="fill:#ffffff;fill-opacity:1;fill-rule:nonzero;stroke:none"
               id="path870" />
          </g>
        </g>
      </g>
      <g
         id="g872"
         transform="translate(118.1025,41.419)">
        <path
           d="M 0,0 H 3.279 L 4.435,4.764 9.831,4.792 11.056,0 h 3.361 L 8.91,19.635 H 5.589 Z M 7.208,16.159 V 16.131 L 9.097,7.59 H 5.28 Z"
           style="fill:#ffffff;fill-opacity:1;fill-rule:nonzero;stroke:none"
           id="path874" />
      </g>
      <g
         id="g876"
         transform="translate(0,2.7499)">
        <g
           id="g878"
           clip-path="url(#clipPath882)">
          <g
             id="g884"
             transform="translate(64.5571,48.4546)">
            <path
               d="m 0,0 c 0,-5.665 1.812,-10.017 6.096,-10.017 4.285,0 6.097,4.352 6.097,10.017 0,5.83 -1.812,10.081 -6.097,10.081 C 1.812,10.081 0,5.83 0,0 m 3.044,0 c 0,3.438 0.319,7.445 3.052,7.445 C 8.83,7.445 9.149,3.438 9.149,0 9.149,-3.273 8.83,-7.75 6.096,-7.75 3.363,-7.75 3.044,-3.273 3.044,0"
               style="fill:#ffffff;fill-opacity:1;fill-rule:nonzero;stroke:none"
               id="path886" />
          </g>
        </g>
      </g>
    </g>
  </g>
</svg>
